<?xml version="1.0" encoding="UTF-8" standalone="no"?>
<svg
   width="32"
   height="22"
   fill="#c51d4a"
   class="bi bi-broadcast-pin"
   viewBox="0 0 32 22"
   version="1.1"
   id="svg1"
   sodipodi:docname="broadcast-pin-rpi.svg"
   xml:space="preserve"
   inkscape:version="1.3.2 (091e20e, 2023-11-25, custom)"
   xmlns:inkscape="http://www.inkscape.org/namespaces/inkscape"
   xmlns:sodipodi="http://sodipodi.sourceforge.net/DTD/sodipodi-0.dtd"
   xmlns="http://www.w3.org/2000/svg"
   xmlns:svg="http://www.w3.org/2000/svg"><defs
     id="defs1" /><sodipodi:namedview
     id="namedview1"
     pagecolor="#ffffff"
     bordercolor="#000000"
     borderopacity="0.25"
     inkscape:showpageshadow="2"
     inkscape:pageopacity="0.0"
     inkscape:pagecheckerboard="false"
     inkscape:deskcolor="#d1d1d1"
     inkscape:zoom="36.65625"
     inkscape:cx="17.13214"
     inkscape:cy="12.58994"
     inkscape:window-width="1920"
     inkscape:window-height="1129"
     inkscape:window-x="2552"
     inkscape:window-y="-8"
     inkscape:window-maximized="1"
     inkscape:current-layer="svg1" /><path
     d="m 8.1365341,1.3541642 a 11.120628,11.120628 0 0 0 0,15.7277398 0.79433059,0.79433059 0 0 1 -1.1231835,1.123183 12.709289,12.709289 0 0 1 0,-17.97410643 0.79433059,0.79433059 0 0 1 1.1231835,1.12318363 M 11.50766,4.7253035 a 6.3546447,6.3546447 0 0 0 0,8.9854605 0.79533399,0.79533399 0 1 1 -1.124759,1.124773 7.9433059,7.9433059 0 0 1 0,-11.2350052 0.79533399,0.79533399 0 0 1 1.124759,1.1247717 m 8.985462,-1.1247717 a 0.79433059,0.79433059 0 0 1 1.124772,0 7.9433059,7.9433059 0 0 1 0,11.2350052 0.79533426,0.79533426 0 1 1 -1.124772,-1.124773 6.3546447,6.3546447 0 0 0 0,-8.9854605 0.79433059,0.79433059 0 0 1 0,-1.1247717 m 3.371139,-3.36796256 a 0.79433059,0.79433059 0 0 1 1.123183,0 12.709289,12.709289 0 0 1 0,17.97251776 0.79433059,0.79433059 0 0 1 -1.123183,-1.123183 11.120628,11.120628 0 0 0 0,-15.7277398 0.79433059,0.79433059 0 0 1 0,-1.12318363 z M 12.823066,9.2180369 a 3.1773224,3.1773224 0 1 1 3.971653,3.0772301 v 8.837723 a 0.794331,0.794331 0 0 1 -1.588662,0 V 12.295267 A 3.1773224,3.1773224 0 0 1 12.823066,9.2180369"
     id="path1"
     style="stroke-width:1.58866" /></svg>
