<?xml version="1.0" encoding="UTF-8" standalone="no"?>
<svg
   width="32"
   height="22"
   fill="#448aff"
   class="bi bi-broadcast-pin"
   viewBox="0 0 32 22"
   version="1.1"
   id="svg1"
   sodipodi:docname="broadcast-pin-music-blue.svg"
   xml:space="preserve"
   inkscape:version="1.3.2 (091e20e, 2023-11-25, custom)"
   xmlns:inkscape="http://www.inkscape.org/namespaces/inkscape"
   xmlns:sodipodi="http://sodipodi.sourceforge.net/DTD/sodipodi-0.dtd"
   xmlns="http://www.w3.org/2000/svg"
   xmlns:svg="http://www.w3.org/2000/svg"><defs
     id="defs1" /><sodipodi:namedview
     id="namedview1"
     pagecolor="#ffffff"
     bordercolor="#000000"
     borderopacity="0.25"
     inkscape:showpageshadow="2"
     inkscape:pageopacity="0.0"
     inkscape:pagecheckerboard="false"
     inkscape:deskcolor="#d1d1d1"
     inkscape:zoom="36.65625"
     inkscape:cx="17.13214"
     inkscape:cy="12.58994"
     inkscape:window-width="1920"
     inkscape:window-height="1129"
     inkscape:window-x="2552"
     inkscape:window-y="-8"
     inkscape:window-maximized="1"
     inkscape:current-layer="svg1" /><path
     d="m 8.1365341,1.3541642 a 11.120628,11.120628 0 0 0 0,15.7277398 0.79433059,0.79433059 0 0 1 -1.1231835,1.123183 12.709289,12.709289 0 0 1 0,-17.97410643 0.79433059,0.79433059 0 0 1 1.1231835,1.12318363 M 11.50766,4.7253035 a 6.3546447,6.3546447 0 0 0 0,8.9854605 0.79533399,0.79533399 0 1 1 -1.124759,1.124773 7.9433059,7.9433059 0 0 1 0,-11.2350052 0.79533399,0.79533399 0 0 1 1.124759,1.1247717 m 8.985462,-1.1247717 a 0.79433059,0.79433059 0 0 1 1.124772,0 7.9433059,7.9433059 0 0 1 0,11.2350052 0.79533426,0.79533426 0 1 1 -1.124772,-1.124773 6.3546447,6.3546447 0 0 0 0,-8.9854605 0.79433059,0.79433059 0 0 1 0,-1.1247717 m 3.371139,-3.36796256 a 0.79433059,0.79433059 0 0 1 1.123183,0 12.709289,12.709289 0 0 1 0,17.97251776 0.79433059,0.79433059 0 0 1 -1.123183,-1.123183 11.120628,11.120628 0 0 0 0,-15.7277398 0.79433059,0.79433059 0 0 1 0,-1.12318363 z M 12.823066,9.2180369 a 3.1773224,3.1773224 0 1 1 3.971653,3.0772301 v 8.837723 a 0.794331,0.794331 0 0 1 -1.588662,0 V 12.295267 A 3.1773224,3.1773224 0 0 1 12.823066,9.2180369"
     id="path1"
     style="stroke-width:1.58866" /><g
     style="fill:#448aff"
     id="g2"
     transform="matrix(0.5,0,0,0.5,24.5,14.5)"><path
       d="M 6,13 C 6,14.105 4.88,15 3.5,15 2.12,15 1,14.105 1,13 1,11.895 2.12,11 3.5,11 4.88,11 6,11.896 6,13 m 9,-2 c 0,1.105 -1.12,2 -2.5,2 C 11.12,13 10,12.105 10,11 10,9.895 11.12,9 12.5,9 13.88,9 15,9.895 15,11"
       id="path1-1" /><path
       fill-rule="evenodd"
       d="M 14,11 V 2 h 1 v 9 z M 6,3 V 13 H 5 V 3 Z"
       id="path2" /><path
       d="M 5,2.905 A 1,1 0 0 1 5.9,1.91 l 8,-0.8 A 1,1 0 0 1 15,2.105 V 3 L 5,4 Z"
       id="path3" /></g></svg>
