<?xml version="1.0" encoding="UTF-8" standalone="no"?>
<svg
   width="32"
   height="22"
   fill="#448aff"
   class="bi bi-gear"
   viewBox="0 0 32 22"
   version="1.1"
   id="svg2"
   sodipodi:docname="gear-blue.svg"
   inkscape:version="1.3.2 (091e20e, 2023-11-25, custom)"
   xmlns:inkscape="http://www.inkscape.org/namespaces/inkscape"
   xmlns:sodipodi="http://sodipodi.sourceforge.net/DTD/sodipodi-0.dtd"
   xmlns="http://www.w3.org/2000/svg"
   xmlns:svg="http://www.w3.org/2000/svg">
  <defs
     id="defs2" />
  <sodipodi:namedview
     id="namedview2"
     pagecolor="#ffffff"
     bordercolor="#000000"
     borderopacity="0.25"
     inkscape:showpageshadow="2"
     inkscape:pageopacity="0.0"
     inkscape:pagecheckerboard="0"
     inkscape:deskcolor="#d1d1d1"
     inkscape:zoom="36.65625"
     inkscape:cx="14.84058"
     inkscape:cy="11.635124"
     inkscape:window-width="2560"
     inkscape:window-height="1369"
     inkscape:window-x="-8"
     inkscape:window-y="-8"
     inkscape:window-maximized="1"
     inkscape:current-layer="svg2" />
  <path
     d="m 16,6.5204698 a 4.4526023,4.4526023 0 1 0 0,8.9052042 4.4526023,4.4526023 0 0 0 0,-8.9052042 z m -3.080883,4.4526022 a 3.080883,3.080883 0 1 1 6.161766,0 3.080883,3.080883 0 0 1 -6.161766,0 z"
     id="path1"
     style="stroke-width:1.37172" />
  <path
     d="m 18.463609,1.8415337 c -0.722897,-2.45537827 -4.204321,-2.45537827 -4.927218,0 L 13.40745,2.2791123 A 1.1975113,1.1975113 0 0 1 11.685941,2.9924066 L 11.285399,2.7729314 C 9.0357788,1.5493574 6.5762853,4.0102227 7.8012311,6.2584713 L 8.0193345,6.6590135 A 1.1975113,1.1975113 0 0 1 7.3060402,8.3805217 L 6.8684616,8.5094634 c -2.4553783,0.7228963 -2.4553783,4.2043206 0,4.9272176 l 0.4375786,0.128941 a 1.1975113,1.1975113 0 0 1 0.7132943,1.721509 l -0.2194752,0.400542 c -1.223574,2.24962 1.2359195,4.710485 3.4855397,3.484168 l 0.400542,-0.218104 a 1.1975113,1.1975113 0 0 1 1.721509,0.713295 l 0.128941,0.437578 c 0.722897,2.455379 4.204321,2.455379 4.927218,0 l 0.128941,-0.437578 a 1.1975113,1.1975113 0 0 1 1.721509,-0.713295 l 0.400542,0.219476 c 2.24962,1.224945 4.710485,-1.237292 3.484168,-3.48554 l -0.218104,-0.400542 a 1.1975113,1.1975113 0 0 1 0.713295,-1.721509 l 0.437578,-0.128941 c 2.455379,-0.722897 2.455379,-4.2043213 0,-4.9272176 L 24.69396,8.3805217 A 1.1975113,1.1975113 0 0 1 23.980665,6.6590135 L 24.200141,6.2584713 C 25.425086,4.0088509 22.962849,1.5493574 20.714601,2.7743032 L 20.314059,2.9924066 A 1.1975113,1.1975113 0 0 1 18.59255,2.2791123 Z M 14.85187,2.2297304 c 0.337444,-1.1453859 1.958816,-1.1453859 2.296259,0 l 0.128942,0.4375786 a 2.5692311,2.5692311 0 0 0 3.694041,1.5294675 l 0.399171,-0.2194751 c 1.047994,-0.5692637 2.194751,0.5761223 1.624116,1.6254879 l -0.218103,0.4005421 a 2.5692311,2.5692311 0 0 0 1.530839,3.6926696 l 0.436207,0.1289416 c 1.145386,0.3374434 1.145386,1.9588154 0,2.2962584 l -0.437579,0.128942 a 2.5692311,2.5692311 0 0 0 -1.529467,3.694041 l 0.219475,0.399171 c 0.569263,1.047994 -0.576123,2.194751 -1.625488,1.624116 l -0.399171,-0.218103 a 2.5692311,2.5692311 0 0 0 -3.694041,1.530839 l -0.128942,0.436207 c -0.337443,1.145386 -1.958815,1.145386 -2.296259,0 l -0.128941,-0.437579 a 2.5692311,2.5692311 0 0 0 -3.69267,-1.529467 l -0.400542,0.219475 C 9.5817233,18.538106 8.4349656,17.39272 9.005601,16.343355 L 9.2237044,15.944184 A 2.5692311,2.5692311 0 0 0 7.6942369,12.248771 L 7.2566583,12.11983 c -1.1453859,-0.337443 -1.1453859,-1.958816 0,-2.2962591 L 7.6942369,9.6946292 A 2.5692311,2.5692311 0 0 0 9.2237044,6.0033314 L 9.0042293,5.6027893 C 8.4349656,4.5547954 9.5803516,3.4080377 10.629717,3.9786731 l 0.400542,0.2181034 a 2.5692311,2.5692311 0 0 0 3.69267,-1.5294675 z"
     id="path2"
     style="stroke-width:1.37172" />
</svg>
