<?xml version="1.0" encoding="UTF-8" standalone="no"?>
<svg
   fill="#c51d4a"
   width="32"
   height="22"
   viewBox="0 0 32 22"
   version="1.1"
   id="svg1"
   sodipodi:docname="spotify-rpi.svg"
   inkscape:version="1.3.2 (091e20e, 2023-11-25, custom)"
   xmlns:inkscape="http://www.inkscape.org/namespaces/inkscape"
   xmlns:sodipodi="http://sodipodi.sourceforge.net/DTD/sodipodi-0.dtd"
   xmlns="http://www.w3.org/2000/svg"
   xmlns:svg="http://www.w3.org/2000/svg">
  <defs
     id="defs1" />
  <sodipodi:namedview
     id="namedview1"
     pagecolor="#ffffff"
     bordercolor="#000000"
     borderopacity="0.25"
     inkscape:showpageshadow="2"
     inkscape:pageopacity="0.0"
     inkscape:pagecheckerboard="0"
     inkscape:deskcolor="#d1d1d1"
     inkscape:zoom="36.65625"
     inkscape:cx="15.97272"
     inkscape:cy="11.635124"
     inkscape:window-width="2560"
     inkscape:window-height="1369"
     inkscape:window-x="-8"
     inkscape:window-y="-8"
     inkscape:window-maximized="1"
     inkscape:current-layer="svg1" />
  <path
     d="M 15.999999,0 C 9.9357475,0 5.0221656,4.9135817 5.0221656,10.977835 c 0,6.064253 4.9135819,10.977835 10.9778334,10.977835 6.064253,0 10.977835,-4.913582 10.977835,-10.977835 C 26.977834,4.9135818 22.064252,0 15.999999,0 Z m 0,1.829639 c 5.081538,0 9.148197,4.0666593 9.148197,9.148196 0,5.081538 -4.066659,9.148197 -9.148197,9.148197 -5.081535,0 -9.1481944,-4.066659 -9.1481944,-9.148197 0,-5.0815368 4.0666594,-9.1481961 9.1481944,-9.148196 z m -1.457994,4.3453929 c -1.779609,0 -3.330513,0.1643822 -4.8028009,0.6289385 -0.3895128,0.078619 -0.7147029,0.3716454 -0.7147029,0.9148195 0,0.5431741 0.4002336,1.0220257 0.9434078,0.9434073 0.232278,0 0.389513,-0.085762 0.543174,-0.085762 1.24001,-0.3108962 2.637254,-0.45741 4.030922,-0.45741 2.708724,0 5.488918,0.6039238 7.347146,1.6866982 0.232277,0.078626 0.310896,0.1715293 0.543172,0.1715293 0.543176,0 0.921968,-0.4002343 1.000586,-0.9434077 0,-0.4645564 -0.232279,-0.7611584 -0.543175,-0.9148198 C 20.566951,6.8039728 17.483007,6.1750343 14.542005,6.1750343 Z m -0.257292,3.4019847 c -1.625949,0 -2.783767,0.232279 -3.945159,0.5431754 -0.385939,0.153662 -0.6003499,0.393087 -0.6003499,0.857643 0,0.385939 0.3073229,0.771879 0.7718789,0.771879 0.157235,0 0.225132,-0.0071 0.45741,-0.08576 0.850497,-0.232279 2.019033,-0.371645 3.259044,-0.371645 2.555062,0 4.777787,0.621791 6.403736,1.629522 0.153662,0.07863 0.310896,0.14294 0.543174,0.14294 0.464557,0 0.771879,-0.393086 0.771879,-0.857643 0,-0.310896 -0.146513,-0.618216 -0.457409,-0.771878 -2.011888,-1.240013 -4.570525,-1.858231 -7.204204,-1.858231 z m 0.257292,3.3448104 c -1.315053,0 -2.562208,0.146514 -3.802217,0.45741 -0.310896,0.07863 -0.543174,0.300175 -0.543174,0.686113 0,0.310896 0.242999,0.628939 0.628938,0.628939 0.07862,0 0.303749,-0.08576 0.45741,-0.08576 1.007731,-0.232277 2.090503,-0.371644 3.17328,-0.371644 1.933271,0 3.70216,0.464557 5.174446,1.315053 0.157237,0.07863 0.332339,0.142939 0.485999,0.142939 0.310896,0 0.607498,-0.232277 0.686115,-0.543173 0,-0.389513 -0.167956,-0.532452 -0.400233,-0.686115 -1.704567,-1.007731 -3.695014,-1.543758 -5.860564,-1.543758 z"
     id="path1"
     style="stroke-width:0.914819" />
</svg>
