<?xml version="1.0" encoding="UTF-8" standalone="no"?>
<svg
   width="32"
   height="22"
   fill="#448aff"
   class="bi bi-star"
   viewBox="0 0 32 22"
   version="1.1"
   id="svg1"
   sodipodi:docname="star-blue.svg"
   inkscape:version="1.3.2 (091e20e, 2023-11-25, custom)"
   xmlns:inkscape="http://www.inkscape.org/namespaces/inkscape"
   xmlns:sodipodi="http://sodipodi.sourceforge.net/DTD/sodipodi-0.dtd"
   xmlns="http://www.w3.org/2000/svg"
   xmlns:svg="http://www.w3.org/2000/svg">
  <defs
     id="defs1" />
  <sodipodi:namedview
     id="namedview1"
     pagecolor="#ffffff"
     bordercolor="#000000"
     borderopacity="0.25"
     inkscape:showpageshadow="2"
     inkscape:pageopacity="0.0"
     inkscape:pagecheckerboard="0"
     inkscape:deskcolor="#d1d1d1"
     inkscape:zoom="36.65625"
     inkscape:cx="7.0929241"
     inkscape:cy="10.789429"
     inkscape:window-width="2560"
     inkscape:window-height="1369"
     inkscape:window-x="-8"
     inkscape:window-y="-8"
     inkscape:window-maximized="1"
     inkscape:current-layer="svg1" />
  <path
     d="m 8.5237942,21.006626 c -0.1141732,0.649909 0.5269535,1.157833 1.0919648,0.868009 l 6.425904,-3.302242 6.424442,3.302242 c 0.56501,0.289824 1.206138,-0.2181 1.091964,-0.866546 L 22.343148,14.084506 27.49851,9.172129 C 27.981551,8.7125085 27.732712,7.8723104 27.08573,7.7815574 L 19.916236,6.7627806 16.719385,0.42909247 a 0.75090871,0.75090871 0 0 0 -1.356906,0 L 12.165628,6.7642443 4.9961335,7.7830211 C 4.3506154,7.8737742 4.1003125,8.7139722 4.5818894,9.1735927 L 9.7387147,14.08597 8.5237942,21.009553 Z m 7.1797408,-4.050223 -5.395418,2.772361 1.01585,-5.792097 A 0.82702421,0.82702421 0 0 0 11.085374,13.197469 L 6.8316881,9.1428538 12.762842,8.2997283 A 0.76847382,0.76847382 0 0 0 13.3381,7.8781654 L 16.038736,2.5237326 18.7423,7.8781654 a 0.76847382,0.76847382 0 0 0 0.575258,0.4215629 l 5.931154,0.8416618 -4.253686,4.0546139 a 0.82702421,0.82702421 0 0 0 -0.238592,0.740663 l 1.015849,5.792097 -5.395418,-2.772361 a 0.73627111,0.73627111 0 0 0 -0.674793,0 z"
     id="path1"
     style="stroke-width:1.46376" />
</svg>
